<svg xmlns="http://www.w3.org/2000/svg" xmlns:xlink="http://www.w3.org/1999/xlink" width="1920" height="600" viewBox="0 0 1920 600"><path transform="translate(37,480)" d="M 56.4 0 L 48 0 L 48 -450 L 56.4 -450 L 56.4 0 Z M 328.2 -27.599999999999998 Q 312.59999999999997 -13.2 291.9 -4.8 Q 271.2 3.5999999999999996 247.8 3.5999999999999996 Q 223.2 3.5999999999999996 202.2 -5.3999999999999995 Q 181.2 -14.399999999999999 165.29999999999998 -30.299999999999997 Q 149.39999999999998 -46.199999999999996 140.39999999999998 -67.2 Q 131.39999999999998 -88.2 131.39999999999998 -112.8 Q 131.39999999999998 -136.79999999999998 140.39999999999998 -158.4 Q 149.39999999999998 -180 165.29999999999998 -195.9 Q 181.2 -211.79999999999998 202.2 -221.1 Q 223.2 -230.39999999999998 247.8 -230.39999999999998 Q 285 -230.39999999999998 310.5 -209.1 Q 336 -187.79999999999998 349.2 -155.4 Q 326.4 -146.4 300.59999999999997 -135.9 Q 274.8 -125.39999999999999 248.39999999999998 -114.6 Q 222 -103.8 195.89999999999998 -93.3 Q 169.79999999999998 -82.8 147 -73.2 Q 159 -42.6 186 -23.7 Q 213 -4.8 247.8 -4.8 Q 269.4 -4.8 288.3 -12.299999999999999 Q 307.2 -19.8 321.59999999999997 -33.6 L 328.2 -27.599999999999998 M 337.79999999999995 -159.6 Q 325.2 -186.6 302.7 -204 Q 280.2 -221.4 247.8 -221.4 Q 225 -221.4 205.5 -213 Q 186 -204.6 171.29999999999998 -189.6 Q 156.6 -174.6 148.2 -154.79999999999998 Q 139.79999999999998 -135 139.79999999999998 -112.8 Q 139.79999999999998 -95.39999999999999 144 -81 Q 166.2 -90 190.79999999999998 -100.2 Q 215.39999999999998 -110.39999999999999 240.59999999999997 -120.3 Q 265.8 -130.2 290.7 -140.4 Q 315.59999999999997 -150.6 337.79999999999995 -159.6 Z M 466.79999999999995 -112.2 Q 445.79999999999995 -141 425.4 -168.6 Q 404.99999999999994 -196.2 383.99999999999994 -225 L 394.79999999999995 -225 L 472.19999999999993 -118.8 Q 491.4 -145.79999999999998 510 -171.6 Q 528.5999999999999 -197.4 547.8 -224.4 L 558 -224.4 Q 537.5999999999999 -195.6 517.5 -168 Q 497.4 -140.4 476.99999999999994 -111.6 Q 498 -83.39999999999999 518.0999999999999 -55.8 Q 538.1999999999999 -28.2 559.1999999999999 0 L 549.5999999999999 0 Q 530.4 -26.4 510.9 -52.5 Q 491.4 -78.6 472.19999999999993 -105 Q 452.99999999999994 -78.6 434.69999999999993 -52.5 Q 416.4 -26.4 397.2 0 L 386.4 0 Q 406.79999999999995 -28.2 426.59999999999997 -56.1 Q 446.4 -84 466.79999999999995 -112.2 Z M 847.8 -112.8 Q 847.8 -135 839.3999999999999 -154.79999999999998 Q 830.9999999999999 -174.6 816.3 -189.6 Q 801.5999999999999 -204.6 781.8 -213 Q 761.9999999999999 -221.4 739.8 -221.4 Q 716.9999999999999 -221.4 697.4999999999999 -213 Q 677.9999999999999 -204.6 662.9999999999999 -189.6 Q 647.9999999999999 -174.6 639.5999999999999 -154.79999999999998 Q 631.1999999999999 -135 631.1999999999999 -112.8 Q 631.1999999999999 -90 639.5999999999999 -70.5 Q 647.9999999999999 -51 662.9999999999999 -36.3 Q 677.9999999999999 -21.599999999999998 697.4999999999999 -13.2 Q 716.9999999999999 -4.8 739.8 -4.8 Q 761.9999999999999 -4.8 781.8 -13.2 Q 801.5999999999999 -21.599999999999998 816.3 -36.3 Q 830.9999999999999 -51 839.3999999999999 -70.5 Q 847.8 -90 847.8 -112.8 M 856.1999999999999 -112.8 Q 856.1999999999999 -88.2 847.1999999999999 -67.2 Q 838.1999999999999 -46.199999999999996 822.3 -30.299999999999997 Q 806.3999999999999 -14.399999999999999 785.0999999999999 -5.3999999999999995 Q 763.8 3.5999999999999996 739.8 3.5999999999999996 Q 721.1999999999999 3.5999999999999996 704.0999999999999 -1.7999999999999998 Q 686.9999999999999 -7.199999999999999 672.9 -17.099999999999998 Q 658.8 -27 647.6999999999999 -40.5 Q 636.5999999999999 -54 630.5999999999999 -70.2 Q 630.5999999999999 -60.599999999999994 630.9 -51.3 Q 631.1999999999999 -42 631.1999999999999 -32.4 L 631.1999999999999 108 L 622.8 108 L 622.8 -225 L 631.1999999999999 -225 L 631.1999999999999 -156 Q 644.4 -188.4 673.4999999999999 -209.1 Q 702.5999999999999 -229.79999999999998 739.8 -229.79999999999998 Q 763.8 -229.79999999999998 785.0999999999999 -220.5 Q 806.3999999999999 -211.2 822.3 -195.6 Q 838.1999999999999 -180 847.1999999999999 -158.4 Q 856.1999999999999 -136.79999999999998 856.1999999999999 -112.8 Z M 939.5999999999999 0 L 931.1999999999999 0 L 931.1999999999999 -450 L 939.5999999999999 -450 L 939.5999999999999 0 Z M 1022.9999999999999 -112.8 Q 1022.9999999999999 -90 1031.3999999999999 -70.5 Q 1039.8 -51 1054.5 -36.3 Q 1069.1999999999998 -21.599999999999998 1088.6999999999998 -13.2 Q 1108.1999999999998 -4.8 1131 -4.8 Q 1153.1999999999998 -4.8 1173 -13.2 Q 1192.8 -21.599999999999998 1207.8 -36.3 Q 1222.8 -51 1231.1999999999998 -70.5 Q 1239.6 -90 1239.6 -112.8 Q 1239.6 -135 1231.1999999999998 -154.79999999999998 Q 1222.8 -174.6 1207.8 -189.6 Q 1192.8 -204.6 1173 -213 Q 1153.1999999999998 -221.4 1131 -221.4 Q 1108.1999999999998 -221.4 1088.6999999999998 -213 Q 1069.1999999999998 -204.6 1054.5 -189.6 Q 1039.8 -174.6 1031.3999999999999 -154.79999999999998 Q 1022.9999999999999 -135 1022.9999999999999 -112.8 M 1014.5999999999999 -112.8 Q 1014.5999999999999 -136.79999999999998 1023.5999999999999 -158.4 Q 1032.6 -180 1048.5 -195.6 Q 1064.3999999999999 -211.2 1085.3999999999999 -220.5 Q 1106.3999999999999 -229.79999999999998 1131 -229.79999999999998 Q 1168.1999999999998 -229.79999999999998 1197.3 -209.1 Q 1226.3999999999999 -188.4 1239.6 -156 Q 1239.6 -173.4 1240.1999999999998 -190.5 Q 1240.8 -207.6 1242 -225 L 1248 -225 L 1248 0 L 1239.6 0 L 1239.6 -32.4 Q 1239.6 -42 1239.8999999999999 -51.3 Q 1240.1999999999998 -60.599999999999994 1240.1999999999998 -70.2 Q 1233.6 -54 1222.8 -40.5 Q 1212 -27 1197.8999999999999 -17.099999999999998 Q 1183.8 -7.199999999999999 1166.6999999999998 -1.7999999999999998 Q 1149.6 3.5999999999999996 1131 3.5999999999999996 Q 1106.3999999999999 3.5999999999999996 1085.3999999999999 -5.3999999999999995 Q 1064.3999999999999 -14.399999999999999 1048.5 -30.299999999999997 Q 1032.6 -46.199999999999996 1023.5999999999999 -67.2 Q 1014.5999999999999 -88.2 1014.5999999999999 -112.8 Z M 1339.1999999999998 -225 L 1345.1999999999998 -225 L 1345.8 -166.2 Q 1357.8 -194.4 1384.1999999999998 -211.79999999999998 Q 1410.6 -229.2 1444.8 -229.2 Q 1476.6 -229.2 1494.8999999999999 -210.6 Q 1513.1999999999998 -192 1514.3999999999999 -162 L 1514.3999999999999 0 L 1506 0 L 1506 -166.2 Q 1504.8 -187.79999999999998 1490.1 -203.7 Q 1475.3999999999999 -219.6 1449 -220.79999999999998 Q 1428.6 -220.79999999999998 1410.3 -214.2 Q 1392 -207.6 1377.8999999999999 -195.9 Q 1363.8 -184.2 1355.6999999999998 -167.7 Q 1347.6 -151.2 1347.6 -132 L 1347.6 0 L 1339.1999999999998 0 L 1339.1999999999998 -225 Z M 1584.6 -112.8 Q 1584.6 -136.79999999999998 1593.6 -158.4 Q 1602.6 -180 1618.5 -195.9 Q 1634.3999999999999 -211.79999999999998 1655.3999999999999 -221.1 Q 1676.3999999999999 -230.39999999999998 1701 -230.39999999999998 Q 1725 -230.39999999999998 1746.6 -221.1 Q 1768.1999999999998 -211.79999999999998 1784.1 -195.9 Q 1800 -180 1809.3 -158.4 Q 1818.6 -136.79999999999998 1818.6 -112.8 Q 1818.6 -88.2 1809.3 -67.2 Q 1800 -46.199999999999996 1784.1 -30.299999999999997 Q 1768.1999999999998 -14.399999999999999 1746.6 -5.3999999999999995 Q 1725 3.5999999999999996 1701 3.5999999999999996 Q 1676.3999999999999 3.5999999999999996 1655.3999999999999 -5.3999999999999995 Q 1634.3999999999999 -14.399999999999999 1618.5 -30.299999999999997 Q 1602.6 -46.199999999999996 1593.6 -67.2 Q 1584.6 -88.2 1584.6 -112.8 M 1593 -112.8 Q 1593 -90 1601.3999999999999 -70.5 Q 1609.8 -51 1624.5 -36.3 Q 1639.1999999999998 -21.599999999999998 1658.6999999999998 -13.2 Q 1678.1999999999998 -4.8 1701 -4.8 Q 1723.1999999999998 -4.8 1743 -13.2 Q 1762.8 -21.599999999999998 1777.8 -36.3 Q 1792.8 -51 1801.1999999999998 -70.5 Q 1809.6 -90 1809.6 -112.8 Q 1809.6 -135 1801.1999999999998 -154.79999999999998 Q 1792.8 -174.6 1777.8 -189.6 Q 1762.8 -204.6 1743 -213 Q 1723.1999999999998 -221.4 1701 -221.4 Q 1678.1999999999998 -221.4 1658.6999999999998 -213 Q 1639.1999999999998 -204.6 1624.5 -189.6 Q 1609.8 -174.6 1601.3999999999999 -154.79999999999998 Q 1593 -135 1593 -112.8 Z"/></svg>